<?xml version='1.0' encoding='utf-8'?>
<svg xmlns="http://www.w3.org/2000/svg" width="210mm" height="297mm" style="shape-rendering:geometricPrecision; text-rendering:geometricPrecision; image-rendering:optimizeQuality; fill-rule:evenodd; clip-rule:evenodd" viewBox="0 0 210 297"> <defs> <style type="text/css">  .fil0 {fill:black}  </style> </defs> <g id="Warstwa_x0020_1"> <metadata id="CorelCorpID_0Corel-Layer"/> <path class="fil0" d="M84.5823 31.432c0.3912,-1.3754 1.1038,-2.5799 1.6361,-3.7995 0.6845,-1.5681 1.2383,-3.0975 2.1918,-4.3683 1.4497,-1.9322 3.2339,-3.4955 5.4233,-4.6114 0.6122,-1.2254 2.5864,-1.7817 4.0954,-2.0822 1.5093,-0.3005 3.1233,0.2648 4.9598,0.279 1.1909,1.2743 3.2743,1.753 4.706,2.8354 1.2243,0.9255 2.3457,1.9544 3.3562,3.0936 1.1853,1.3361 2.0223,2.8641 2.8917,4.5169 0.5948,1.1307 1.3095,2.2992 1.7469,3.5877 0.6919,-0.0932 0.8321,0.701 0.8424,1.4268 0.0061,0.4275 0.1929,0.845 0.3024,1.11 0.4179,1.0109 0.7547,1.7829 0.6765,2.5118 -0.0615,0.5733 -0.2768,1.0596 -0.6453,1.4586 -0.3568,-0.0707 -0.5847,-0.3851 -0.7056,-0.9016 -0.758,2.5716 0.0351,5.3868 -0.6645,8.1683 -0.3793,1.5081 -1.1375,2.5687 -1.8443,4.6109 1.549,0.6611 2.8427,1.4285 3.7632,2.352 0.8588,0.0672 1.8975,0.5313 3.0184,1.176 0.5125,0.0427 0.8824,0.251 1.1417,0.5872 0.2437,0.3158 0.0953,0.9021 0.4655,1.2552 0.7461,-0.0844 1.0798,0.2905 1.1778,0.8589 0.098,0.5684 -0.0986,1.4189 -0.5898,2.5515 0,0.405 0,0.8101 0,1.2152 0.6821,0.0384 1.3043,0.1949 1.8032,0.5488 5.538,1.709 10.3876,3.6938 12.7792,6.664 0.4971,0.1976 0.855,0.588 1.1219,1.1038 0.2843,0.5492 0.3086,1.2898 0.6029,1.993 0.6233,0.3767 1.0641,0.9703 1.3757,1.7171 0.4555,1.0918 0.3013,2.4325 0.7057,4.0603 0.5722,0.5177 1.0572,0.5756 1.2251,0.9764 0.1307,0.3118 0.0935,0.6762 -0.1644,1.1097 1.1609,1.2204 2.3218,2.4408 3.4827,3.6613 0.8836,0.2602 0.8964,0.7699 0.3136,1.4504 1.1106,1.1629 2.2213,2.3258 3.332,3.4888 0.6722,-0.0213 1.0417,0.2525 0.7448,1.176 0.993,1.2282 1.9861,2.4565 2.9792,3.6848 0.5604,0.6049 -1.4674,2.3703 -2.6462,3.0988 -0.9766,0.6035 -2.1796,0.975 -3.665,1.0564 -0.4324,0.3165 -0.8874,0.5521 -1.3026,0.7701 -0.3663,0.1924 -0.853,0.4002 -1.2019,0.4939 -0.5792,0.1555 -0.9851,-0.1236 -1.4939,-0.0488 -0.2993,1.0246 0.142,2.088 0.1962,3.1298 0.0904,1.7366 0.1422,3.4683 0.1179,5.1903 -0.0233,1.6533 -0.117,3.2979 -0.3141,4.9295 0.3731,0.4247 0.3861,0.8297 0.0392,1.2152 0.649,0.6158 1.1947,1.0364 1.6324,1.3655 0.3811,0.2864 0.6079,0.5361 0.8392,0.7334 0.2707,0.231 0.519,0.4055 0.5902,0.703 0.11,0.4597 -0.1318,0.7332 -0.4295,1.1417 -0.5307,0.7285 -1.4959,1.5443 -2.7891,2.1716 -1.4571,1.0059 -2.541,2.1005 -3.9391,3.1459 -0.3825,1.0576 -1.2732,1.7026 -2.2056,1.8421 -1.3851,1.0061 -2.7407,2.0418 -4.1257,3.048 0.1646,1.1019 0.7309,1.2427 0.8297,1.9344 0.0555,0.3881 -0.0891,0.67 -0.1241,1.2408 0.5016,1.8505 1.4257,4.0159 1.9852,5.8984 0.3533,1.1887 1.0744,2.2125 0.406,2.9216 0.1088,0.3887 0.3181,0.7401 0.4347,1.1296 0.4913,1.6402 0.9988,3.3061 1.5236,4.9601 0.2048,0.6457 0.8473,0.7773 0.2761,1.9855 0.5739,1.8244 1.154,3.6194 1.6756,5.4743 0.1887,0.6709 0.5235,1.2815 0.6308,2.0003 0.0558,0.3745 0.0983,0.7572 0.124,1.1494 0.3644,1.6006 0.7939,3.0002 1.1369,4.4541 0.0825,0.3498 0.3149,0.5469 0.417,0.9943 0.0719,0.3151 -0.0603,0.7062 0.0028,1.0304 0.1116,0.5736 0.2272,1.1599 0.3639,1.7608 0.0742,0.7817 -1.9337,1.6126 -2.9398,2.1484 0.251,0.6033 0.0899,1.1603 -0.3528,1.6856 0.0653,7.0037 0.1306,14.0074 0.196,21.0112 1.1286,1.7314 1.6187,3.7402 1.176,6.1544 0.2516,0.6481 0.5867,1.1603 0.8286,1.7844 0.2004,0.5173 0.4325,0.9799 0.5017,1.5962 0.065,0.5787 -0.0519,1.1765 -0.1394,1.8602 -0.0726,0.5666 -0.2284,1.1365 -0.2109,1.8936 0.4856,2.7073 0.1972,5.6271 -0.9408,8.7808 0.0277,2.1761 0.4126,4.0678 0.9307,5.8391 0.9235,3.1578 2.2703,5.9337 2.7699,9.2579 0.4466,2.9709 0.2056,6.1175 0.032,9.2014 -0.2095,3.7221 -0.4107,7.3984 -0.3607,11.1533 0.0321,2.4114 0.2387,4.7555 0.6547,7.1284 0.2801,1.5977 0.8206,3.1434 1.0694,4.8911 0.9578,1.0671 1.6159,2.4211 1.81,3.8173 0.1079,0.7762 -0.1713,1.708 0.2226,2.4168 0.9311,1.6756 3.3604,2.5237 4.6397,4.1121 0.6996,0.8687 1.4526,2.2569 1.6594,3.348 0.0873,0.4608 0.0971,0.5733 -0.2124,0.8274 0.573,0.7358 1.0835,1.2531 1.3386,1.8753 0.2551,0.6222 0.2941,1.2118 0.0423,1.6788 0.2354,0.1093 0.5629,0.3117 0.6529,0.659 0.1783,0.6879 0.3789,1.5702 -0.26,1.7027 -4.5523,0.7917 -9.5838,1.1691 -13.2021,1.3448 -1.3994,0.068 -3.0028,0.1875 -3.9734,-0.3062 -0.8169,-0.4156 -1.104,-1.6697 -1.6324,-2.4007 -0.7639,0.1637 -1.9119,0.4186 -2.7674,0.5694 -0.929,-0.1515 -4.9678,-0.3489 -5.5769,-1.13 -0.4054,-0.5199 -0.3451,-1.524 -0.4828,-2.349 -0.1075,-0.6438 -0.1475,-1.4459 -0.1419,-2.5069 0.1447,-0.1284 0.2895,-0.2568 0.4343,-0.3851 -0.0278,-5.2652 0.2101,-11.3943 -0.4962,-16.7374 -0.3394,-2.5676 -0.5444,-5.2284 -1.0757,-7.7029 -0.761,-3.5445 -1.5876,-6.9947 -2.378,-10.4823 -0.5408,-2.3863 -1.1381,-4.7799 -1.396,-7.2746 -0.265,-2.564 -0.0505,-5.032 -0.0418,-7.5352 0.002,-0.5775 0.1266,-2.0463 0.0643,-2.6369 -0.3988,-3.7795 -0.8967,-6.5166 -1.2959,-10.2964 -1.4331,-2.3061 -2.4606,-4.4899 -2.8953,-6.8648 -0.4212,-2.3016 0.0714,-4.5007 0.2494,-6.5272 -0.7514,-1.9088 -1.0007,-3.8952 -1.5084,-5.7287 -0.3253,-1.1752 -0.7191,-2.2694 -1.0928,-3.4015 -1.0844,-3.2849 -2.2096,-6.5476 -3.4945,-10.053 -0.6664,0.2874 -1.3328,0.5749 -1.9992,0.8624 0.1315,1.0331 -0.1561,1.8562 -0.8624,2.4696 1.3784,20.7715 3.0413,41.806 4.9393,62.7969 1.0822,11.9679 2.5322,23.9484 3.3179,35.7911 0.1016,1.5323 -0.1885,3.2609 -1.4589,3.8524 -1.2413,-0.1687 -2.5221,-2.1015 -2.7442,-3.4463 -2.0778,-12.5766 -4.1895,-25.266 -5.8199,-37.9695 -1.3593,-10.5907 -2.7774,-21.1523 -4.1418,-31.7058 -0.7397,-5.7215 -1.27,-11.4687 -2.2091,-17.1534 -0.2135,2.5904 -0.4409,5.1808 -0.7065,7.7715 0.2074,3.9085 0.6595,7.5251 -0.0504,10.876 -0.5882,2.7766 -1.7052,5.344 -3.4821,7.65 0.8351,3.2701 0.8775,6.7683 0.6234,10.2025 -0.2278,3.0789 -0.7627,5.9421 -1.4703,8.7368 -0.0975,0.3854 -0.2853,0.731 -0.3851,1.1157 -0.0829,0.3198 0.1766,0.8961 0.1421,1.2312 -0.0163,0.1586 -0.1596,0.4689 -0.2551,0.5648 -0.1592,0.1598 -0.3935,0.1452 -0.4602,0.4036 -0.2187,0.8475 0.0367,1.7012 -0.1666,2.5664 -0.3625,1.5426 -1.1581,3.1232 -1.3951,4.7765 -0.4338,3.0258 -0.7291,6.5685 -0.7219,9.8876 0.0059,2.7503 0.1318,5.2521 0.0159,7.6489 -0.0814,1.6849 0.2034,4.2389 -0.528,5.7617 -0.2856,0.5945 -0.5898,1.1748 -0.9136,1.7392 -0.0339,1.6408 -0.0665,2.8804 -0.0698,3.8958 -0.0019,0.5759 0.0376,1.005 -0.1604,1.3281 -0.2191,0.3574 -0.5516,0.4012 -0.9344,0.5587 -0.7307,0.3008 -1.6971,0.5485 -2.7745,0.9007 -0.956,-0.046 -1.7302,-0.1165 -2.6861,-0.1624 -0.0814,0.6975 0.0124,1.5151 -0.4034,1.9635 -1.0342,1.1151 -3.261,1.2861 -5.4828,1.3547 -3.4224,0.1058 -7.8239,-0.5949 -11.6016,-0.7817 -0.1581,-0.4875 -0.1907,-0.9877 -0.1392,-1.4963 0.0415,-0.4107 0.4624,-0.7778 0.5922,-1.1974 0.1566,-0.5064 0.0573,-1.0669 0.2526,-1.5791 0.2591,-0.382 -0.5118,-0.7247 -0.4009,-0.9299 0.4237,-0.7834 0.823,-1.827 1.2872,-2.7049 0.2382,-0.4507 0.5204,-0.8192 0.777,-1.2269 0.3096,-0.4919 0.5958,-1.0189 0.8985,-1.5229 0.1594,-0.2655 0.1858,-0.63 0.3538,-0.8727 0.7593,-1.0966 1.6623,-1.0316 2.4548,-2.5819 0.8694,-4.9573 2.2469,-10.2689 2.684,-15.364 0.438,-5.1046 0.0361,-9.9796 0.0419,-15.0755 0.0046,-4.0564 -0.2479,-7.9531 0.0777,-11.9542 0.1565,-1.9227 1.3051,-3.3384 1.6209,-5.2643 0.5143,-3.1365 0.2482,-6.7816 0.5147,-9.8876 -1.1395,-3.9592 -0.9695,-7.9707 0.5096,-12.0344 0.045,-1.4372 0.0309,-3.0516 -0.1009,-4.4888 -0.7566,-8.2451 -1.8081,-16.3133 -2.5647,-24.5584 -1.8776,-0.2211 -3.4211,-0.6659 -4.5886,-1.2778 -1.4894,-0.7805 -2.3954,-1.7038 -1.9396,-3.3812 0.4553,-1.6753 0.6038,-3.5002 1.589,-6.6306 0.0493,-1.2694 0.2126,-2.4932 0.4499,-3.6872 0.0704,-0.3543 0.344,-0.5292 0.4265,-0.8788 0.3236,-1.3714 0.5357,-2.8862 0.966,-4.2148 -0.1967,-1.0725 -0.0137,-1.8566 0.5488,-2.352 0.3278,-1.6695 0.6416,-3.3437 1.1169,-4.9641 0.216,-0.7363 0.21,-1.6191 0.7647,-2.1703 0.1686,-1.0971 0.4037,-2.2269 0.6382,-3.3323 0.3427,-1.6152 1.5119,-3.988 1.1258,-4.8213 -1.5807,-1.7481 -3.4757,-3.319 -5.2136,-4.9784 -1.1591,0.1049 -1.6925,-0.7525 -1.8816,-1.8032 -1.3458,-1.163 -2.6917,-2.3259 -4.0376,-3.4888 -0.8177,0.2448 -1.144,-0.3312 -1.3328,-1.1368 -0.6844,-0.5741 -1.2912,-0.9816 -1.4631,-1.4137 -0.2302,-0.5785 0.2436,-0.8693 0.7341,-1.3586 0.5221,-0.5207 1.2481,-1.148 1.7874,-1.7357 -0.498,-0.5391 -0.4263,-1.1474 -0.4528,-1.7455 -0.1095,-2.4731 -0.315,-4.995 -0.3222,-7.4817 -0.0022,-0.7612 -0.0154,-1.5014 0.2654,-2.2584 0.0464,-1.1533 0.229,-2.2845 0.3413,-3.4012 0.0845,-0.8413 0.0954,-1.6703 0.1683,-2.518 -1.5549,-0.4704 -3.1098,-0.9408 -4.6648,-1.4112 -2.0052,2.6604 -3.9728,2.2075 -4.9522,1.9229 -1.1099,-0.3226 -2.4853,-2.2808 -1.0454,-4.1181 0.434,-0.843 0.102,-1.814 1.9208,-2.352 -0.2017,-1.2648 0.5139,-2.1782 1.2152,-3.0968 0.196,-0.2222 0.392,-0.4443 0.588,-0.6664 0.379,-0.3267 0.7579,-0.6534 1.1368,-0.98 -0.1521,-0.8785 0.1395,-1.634 0.6287,-2.3226 0.3577,-0.5034 0.841,-0.755 1.3141,-1.2091 0.5361,-0.5146 1.3414,-1.0937 1.4858,-1.7397 0.6438,-2.8788 1.7803,-5.37 2.8269,-7.6559 0.5293,-1.1563 0.7875,-2.3483 1.4528,-3.3321 0.6062,-0.8964 1.4165,-1.6298 2.1147,-2.3962 2.034,-2.2323 4.5347,-3.502 7.3291,-4.6447 1.051,-0.4298 2.2728,-1.0391 3.2319,-1.4741 -0.6486,-1.2308 -0.3522,-2.4551 0.6042,-3.6746 1.4438,-1.8411 4.5098,-3.6124 7.863,-5.4982 -0.8705,-2.7821 -2.9691,-5.0696 -3.7154,-7.6372 -0.6183,-2.1272 -0.3702,-4.5663 -0.6358,-6.4356 -1.3801,3.4601 -1.5782,0.0501 -1.603,-2.2273 -0.0264,-2.4241 0.3372,-6.0436 1.5638,-3.5743z"/> </g> </svg>